<?xml version="1.0" encoding="UTF-8"?>
<svg id="Capa_2" data-name="Capa 2" xmlns="http://www.w3.org/2000/svg" viewBox="0 0 146.72 69">
  <defs>
    <style>
      .cls-1 {
        fill: #61dafb;
      }

      .cls-1, .cls-2 {
        stroke-width: 0px;
      }

      .cls-2 {
        fill: #fff;
      }
    </style>
  </defs>
  <g id="Capa_1-2" data-name="Capa 1">
    <g>
      <g>
        <path class="cls-2" d="m1.19,28.79c-.27-.16-.46-.37-.55-.61-.1-.24-.12-.63-.06-1.16.05-.53.12-1.12.2-1.76.08-.64.17-1.61.27-2.9.1-1.29.14-2.66.14-4.11s-.07-3.02-.2-4.72-.28-3.19-.43-4.45c-.15-1.27-.29-2.47-.41-3.62C.03,4.33-.02,3.39,0,2.67c.03-.72.15-1.19.37-1.41.35-.41,1.87-.69,4.53-.84,2.67-.15,5.43-.12,8.27.1,2.84.22,4.65.59,5.41,1.1.6.41,1.08,1.23,1.43,2.47.35,1.24.53,2.54.53,3.9s-.3,2.63-.9,3.82c-.6,1.18-1.46,1.91-2.57,2.19.16.16.38.4.65.71.27.31.63.89,1.08,1.72.45.83.67,1.57.67,2.23,0,1.74.07,3.73.23,5.96.15,2.23.37,3.62.67,4.17.11.22.07.39-.12.51-.19.12-.51.2-.96.25-.45.04-.93.05-1.43.04s-1.1-.05-1.78-.12c-.68-.07-1.25-.12-1.7-.16-.45-.04-.95-.1-1.49-.18-.44-.05-.7-.31-.8-.78s-.08-1.07.06-1.82.28-1.55.43-2.41c.15-.86.22-1.8.2-2.84-.01-1.03-.18-1.97-.51-2.82-.49-1.17-1.06-2.23-1.7-3.19-.64-.95-1.13-1.79-1.47-2.51-.34-.72-.58-1.7-.72-2.92-.16-1.47.3-2.27,1.39-2.41.9-.11,1.73.23,2.49,1.02.49.49.71,1.02.65,1.59,0,.6.2.87.61.82.54-.03,1.01-.42,1.39-1.19.6-1.17.4-2.26-.61-3.27-.63-.65-1.4-1.05-2.31-1.19-.91-.14-1.77-.05-2.57.25-.8.3-1.53.76-2.16,1.37-.64.61-1.06,1.27-1.25,1.98-.63,2.75-.04,5.23,1.76,7.43.84,1.01,1.41,2.12,1.7,3.35s.4,2.74.35,4.53c-.03.68-.03,1.27-.02,1.76.01.49.03.91.04,1.27.01.35,0,.64-.04.86-.04.22-.12.39-.24.51-.12.12-.31.21-.55.27-.79.19-2.08.31-3.88.37s-3.12-.07-3.96-.37Z"/>
        <path class="cls-2" d="m21.49,5.39c.03-.27.04-.67.04-1.19s0-.88.02-1.1.07-.5.16-.84.23-.58.39-.72c.16-.14.4-.26.72-.37.31-.11.7-.16,1.16-.16,9.69-.68,15.24-.57,16.62.33.38.25.58.71.59,1.39s-.08,1.45-.29,2.31-.39,2.06-.55,3.62c-.16,1.55-.2,3.11-.12,4.66.05,1.25.17,2.61.35,4.06.18,1.46.35,2.71.53,3.76.18,1.05.34,2.06.49,3.02.15.97.22,1.77.2,2.41-.01.64-.13,1.1-.35,1.37-.35.44-1.86.8-4.51,1.1-2.66.3-5.2.46-7.62.47-2.42.01-4.17-.09-5.23-.31-.33-.08-.59-.18-.8-.29s-.37-.26-.49-.45c-.12-.19-.21-.37-.27-.53-.06-.16-.08-.44-.08-.84s.01-.75.04-1.06c.03-.31.07-.8.12-1.47.05-.67.08-1.27.08-1.82.11-1.85-.08-5.06-.55-9.62-.48-4.56-.7-7.14-.67-7.74Zm9.72,15.97c-.22-.71-.15-2.08.2-4.1.35-2.03.72-4.03,1.08-6,.37-1.97.47-3.27.31-3.9-.38-1.39-1.29-2.07-2.74-2.04-1.03.03-1.76.33-2.16.9-.44.6-.11,1.08.98,1.43.33.08.72.16,1.18.24.3.03.5.26.59.69.1.44.07,1.14-.06,2.1-.14.97-.27,1.8-.41,2.51-.14.71-.37,1.76-.69,3.15-.11.46-.19.82-.24,1.06-.19.87-.33,1.58-.43,2.12-.1.54-.17,1.14-.23,1.78-.06.64-.04,1.15.04,1.53.08.38.23.75.43,1.1.2.35.51.63.92.82.41.19.91.31,1.51.37,1.14.11,2.06.08,2.74-.08.68-.16,1.08-.41,1.19-.74.11-.33.08-.69-.08-1.1-.14-.27-.4-.43-.8-.47-.4-.04-.8-.03-1.23.02-.42.05-.84-.02-1.25-.23-.41-.2-.69-.59-.86-1.16Z"/>
        <path class="cls-2" d="m43.84,10.62c-.08-.93-.18-1.88-.31-2.86-.12-.98-.23-1.76-.33-2.33-.1-.57-.18-1.15-.25-1.74s-.09-1.03-.06-1.35c.03-.31.11-.61.25-.88.14-.27.34-.46.61-.57.27-.11.64-.18,1.1-.2,8.58-.3,13.62-.3,15.11,0,.93.22,1.4.63,1.43,1.23,0,.19-.04.49-.12.9-.11.52-.09,1.2.06,2.04.15.85.32,1.62.51,2.33s.27,1.46.23,2.25c-.04.79-.28,1.43-.72,1.92-.57.71-1.55,1.11-2.94,1.2-1.39.1-2.71-.03-3.96-.39-1.25-.35-2.08-.79-2.49-1.31-.14-.22-.22-.43-.27-.63-.04-.2-.01-.4.08-.59s.22-.37.37-.55c.15-.18.36-.37.63-.57s.53-.4.78-.57c.24-.18.54-.38.88-.61.34-.23.63-.46.88-.67.74-.6.84-1.09.33-1.47-.6-.41-1.42-.4-2.45.04-.52.22-.97.53-1.35.94-.71.76-1.23,2.1-1.55,4.02-.33,1.92-.33,3.91-.02,5.96.31,2.06.93,3.56,1.86,4.51,1.61,1.72,2.98,2.55,4.13,2.49.74-.03,1.05-.45.94-1.27-.06-.41-.28-.75-.67-1.02-.4-.27-.82-.48-1.29-.61-.46-.14-.93-.36-1.41-.67-.48-.31-.8-.69-.96-1.12-.24-.65.12-1.2,1.08-1.63.97-.44,2.13-.64,3.49-.61,1.36.03,2.42.3,3.19.82.74.49,1.27,1.6,1.61,3.33.34,1.73.47,3.4.39,5-.08,1.61-.29,2.59-.61,2.94-.3.33-1.88.63-4.74.92-2.86.29-5.78.4-8.76.35-2.98-.06-4.7-.34-5.17-.86-.3-.33-.46-.94-.49-1.84-.03-.9.03-1.95.18-3.15.15-1.2.31-2.55.47-4.04.16-1.5.29-3,.39-4.49.09-1.5.07-3.02-.06-4.57Z"/>
        <path class="cls-2" d="m63.77,5.27c-.46-1.36-.67-2.32-.61-2.88.05-.56.42-.99,1.1-1.29.71.14,1.56.18,2.55.12.99-.06,1.87-.14,2.61-.25.75-.11,1.5-.17,2.27-.18.76-.01,1.24.09,1.43.31.41.27.65.78.74,1.51s.07,1.83-.04,3.29c-.11,1.46-.16,2.47-.16,3.04,0,.68-.27,1.36-.82,2.04s-1.14,1.23-1.78,1.65c-.64.42-1.18.85-1.63,1.29-.45.44-.61.79-.47,1.06.33.65,1.27.55,2.82-.31,1.55-.86,2.8-1.93,3.76-3.21.44-.6.66-1.41.67-2.43s-.1-1.99-.33-2.9c-.23-.91-.45-1.81-.65-2.7-.2-.88-.27-1.46-.18-1.74.11-.41.74-.71,1.88-.9s2.32-.24,3.53-.16,1.98.26,2.31.53c.19.16.3.44.33.82.03.38,0,.87-.1,1.45-.1.59-.22,1.19-.37,1.8-.15.61-.31,1.34-.49,2.19-.18.84-.31,1.61-.39,2.29-.08.71-.27,1.36-.57,1.96-.3.6-.63,1.07-.98,1.41-.35.34-.7.63-1.04.88-.34.25-.62.41-.84.49l-.33.12c2.51.98,3.93,3.46,4.29,7.43.08,1.2.29,2.24.61,3.12.33.89.6,1.55.82,2,.22.45.29.86.2,1.25-.08.44-.78.7-2.1.8-1.32.1-2.59.1-3.82.02-1.23-.08-2.16-.18-2.82-.29-.57-.11-1.01-1.25-1.31-3.41-.3-2.17-.45-3.98-.45-5.45,0-.46.18-.83.53-1.1.35-.27.8-.56,1.33-.86.53-.3.93-.65,1.2-1.06.38-.57.19-.95-.57-1.14-1.03-.24-2.15.01-3.35.78-.41.24-.76.53-1.06.86-.41.44-.65,1.04-.72,1.82-.07.78,0,1.6.2,2.47s.44,1.71.69,2.51c.26.8.52,1.58.78,2.33.26.75.41,1.27.47,1.57.03.33-.17.59-.59.78-.42.19-1,.29-1.74.31s-1.44,0-2.12-.02c-.68-.03-1.4-.08-2.17-.14s-1.23-.1-1.39-.1c-.3,0-.51-.03-.63-.1-.12-.07-.19-.21-.2-.43s0-.45.06-.69c.05-.24.12-.63.18-1.16.07-.53.1-1.07.1-1.61v-10.03c0-.99-.01-2.02-.04-3.08-.03-1.06-.07-2.02-.12-2.86-.06-.84-.12-1.61-.2-2.29-.08-.68-.18-1.18-.29-1.51Z"/>
      </g>
      <g>
        <path class="cls-2" d="m.97,41.43c-.07-.42-.16-1.01-.29-1.78-.42-1.86-.54-3.09-.36-3.69.18-.59.84-.92,2-.99,2.48.19,4.76.27,6.85.24,2.09-.03,3.99-.08,5.69-.14,1.7-.06,3.15-.1,4.34-.1s2.11.13,2.75.39c.64.26.96.67.96,1.25s.06,1.41.17,2.48c.11,1.08.21,2.02.29,2.82.08.8.08,1.6,0,2.39-.08.79-.28,1.36-.6,1.71-.68.42-1.71.61-3.09.58-1.38-.03-2.8-.24-4.24-.63s-2.25-.79-2.41-1.21c-.07-.16-.05-.36.05-.6s.19-.46.29-.65c.1-.19.25-.47.46-.82.21-.35.36-.61.46-.77.1-.16.19-.38.29-.65.1-.27.11-.47.05-.6-.06-.13-.21-.23-.43-.31-.23-.08-.56-.12-1.01-.12-1.16.06-2.06.73-2.7,2-.64,1.27-.64,2.55,0,3.83.64,1.29,1.95,1.96,3.91,2.03,2.06.03,3.67.25,4.82.65,1.16.4,1.91.9,2.27,1.5.35.6.53,1.37.53,2.34,0,.51-.1.88-.29,1.08-.19.21-.52.31-.99.29-.47-.02-.97-.07-1.52-.17-.55-.1-1.29-.18-2.22-.27-.93-.08-1.85-.09-2.75-.02-1.61.1-2.8.56-3.57,1.4-.77.84-1.12,1.78-1.04,2.82.08,1.05.47,2.03,1.18,2.97.67.84,1.56,1.51,2.65,2.03,1.09.51,2.06.73,2.89.65.84-.08,1.29-.44,1.35-1.09.03-.48-.21-.89-.72-1.23-.51-.34-1.09-.59-1.74-.77-.64-.18-1.28-.4-1.9-.68-.63-.27-1.02-.6-1.18-.99-.16-.32-.18-.64-.05-.96.13-.32.39-.62.8-.89.4-.27.93-.49,1.59-.65.66-.16,1.44-.25,2.34-.27.9-.02,1.93.06,3.09.22,1.06.19,1.94.61,2.63,1.25.69.64,1.17,1.36,1.42,2.15.26.79.4,1.7.43,2.73.03,1.03,0,1.89-.1,2.58-.1.69-.23,1.41-.39,2.15-.16.9-2.17,1.52-6.03,1.86-3.86.34-7.69.33-11.5-.02-3.81-.35-5.76-.92-5.86-1.69-.06-.48.08-4.4.43-11.77.35-7.36.35-11.98,0-13.84Z"/>
        <path class="cls-2" d="m26.48,42.88c-.55-2.12-.88-3.61-1.01-4.46-.13-.85-.11-1.55.05-2.1.39-.93,1.54-1.58,3.45-1.95,1.91-.37,4.02-.48,6.32-.34,2.3.15,4.51.4,6.63.77s3.65.75,4.58,1.13c1.25.51,2.23,1.91,2.92,4.2.69,2.28,1.05,4.9,1.08,7.84.03,2.94-.1,5.86-.39,8.75-.29,2.89-.78,5.37-1.47,7.43-.69,2.06-1.44,3.2-2.24,3.42-1.51.39-3.88.65-7.11.8-3.23.15-6.3.04-9.21-.31-2.91-.35-4.37-1-4.37-1.93,0-.58.11-1.91.34-4,.22-2.09.45-4.2.67-6.32s.34-4.43.34-6.92-.19-4.49-.58-6Zm9.26,16.01c-.23-.84-.14-2.45.26-4.85.4-2.39.83-4.76,1.28-7.09.45-2.33.58-3.87.39-4.61-.45-1.58-1.5-2.38-3.13-2.41-1.22,0-2.09.34-2.6,1.01-.55.71-.21,1.27,1.01,1.69.42.13.92.24,1.5.34.35.03.59.31.7.82.11.51.09,1.33-.07,2.46-.16,1.13-.33,2.11-.51,2.94-.18.84-.44,2.09-.8,3.76-.07.16-.1.3-.12.41-.02.11-.04.25-.07.41-.03.16-.06.31-.1.43-.23,1.03-.4,1.87-.53,2.51-.13.64-.22,1.34-.29,2.1-.06.76-.05,1.36.05,1.81.1.45.27.88.51,1.3.24.42.6.74,1.08.96.48.23,1.08.37,1.78.43,1.38.13,2.48.1,3.28-.1.8-.19,1.26-.48,1.37-.87.11-.39.09-.82-.07-1.3-.16-.32-.48-.51-.96-.55-.48-.05-.97-.04-1.47.02-.5.06-.99-.02-1.47-.27s-.82-.7-1.01-1.37Z"/>
        <path class="cls-2" d="m52.38,42.78c-.07-.42-.18-.99-.34-1.71-.16-.72-.27-1.27-.34-1.64-.06-.37-.13-.82-.19-1.35-.07-.53-.07-.93-.02-1.21.05-.27.13-.57.24-.89.11-.32.3-.58.55-.77.26-.19.58-.34.96-.43,1.25.06,2.47.1,3.64.12,1.17.02,2.11,0,2.82-.05.71-.05,1.35-.1,1.93-.14s1.01-.06,1.3-.05c.29.02.48.09.58.22.13.13.34.98.63,2.56.29,1.58.66,3.06,1.11,4.46.45,1.4.92,2.07,1.4,2,.48-.1.77-.65.87-1.66.1-1.01.08-2.02-.05-3.01-.13-1-.31-1.96-.53-2.89-.13-.68-.09-1.07.12-1.18.21-.11.83-.15,1.86-.12,1.74.06,3.33.05,4.77-.05,1.29-.06,2.6-.17,3.93-.31,1.33-.14,2.31-.26,2.94-.34.63-.08,1.21-.1,1.76-.07.55.03.98.16,1.3.39.26.39.35.93.29,1.64-.07.71-.21,1.81-.43,3.3s-.46,2.99-.7,4.49-.43,3.19-.58,5.09c-.15,1.9-.15,3.6-.02,5.11.1,1.48.25,2.94.46,4.39.21,1.45.39,2.6.55,3.45.16.85.31,1.65.43,2.39.13.74.18,1.33.14,1.76-.03.43-.13.76-.29.99-.22.29-.95.51-2.17.65-1.22.14-2.52.22-3.88.22s-2.61-.07-3.74-.22c-1.13-.15-1.72-.31-1.79-.51-.1-.29.02-.77.34-1.45s.79-1.7,1.4-3.09c.61-1.38,1.11-2.8,1.5-4.24,1.16-3.99.45-7.78-2.12-11.38-.9-1.29-1.7-1.43-2.41-.43-.55.74-.79,1.77-.72,3.09.03.58.19,1.36.48,2.34.29.98.6,1.88.94,2.7.34.82.67,1.63.99,2.44.32.8.51,1.3.58,1.5.06.19-.06.41-.36.65-.31.24-.72.45-1.25.63-.53.18-1.08.31-1.66.41-.58.1-1.16.11-1.74.05-.58-.06-1.04-.21-1.4-.43-.93-.64-1.63-1.86-2.1-3.67s-.47-3.57-.02-5.31c.55-1.93.43-3.28-.34-4.05-.67-.64-1.54-.42-2.6.68-.74.77-1.11,1.72-1.11,2.85s.24,2.31.72,3.57,1.27,2.96,2.36,5.11c.39.74.79,1.48,1.21,2.22.42.74.77,1.34,1.06,1.81.29.47.57.93.84,1.4.27.47.47.84.6,1.11.13.27.21.54.24.8.03.26,0,.47-.12.63-.11.16-.31.29-.6.39-.93.42-3.16.67-6.68.75-3.52.08-5.64-.04-6.34-.36-.35-.13-.56-.27-.63-.43-.06-.16-.05-.35.05-.55.1-.21.22-.6.36-1.18.14-.58.22-1.25.22-2.03,0-2.73-.1-6.46-.31-11.19-.21-4.73-.51-8.02-.89-9.89Z"/>
      </g>
      <path class="cls-1" d="m106.74,22.5c.06-.64,0-1.44-.18-2.41-.18-.96-.37-1.8-.55-2.5-.18-.71-.31-1.36-.37-1.97-.06-.61.09-1.06.46-1.35s.98-.34,1.84-.14c5.77,0,8.5-.83,8.19-2.5-.18-1.35-1.46-2.13-3.82-2.36-2.36-.22-4.22-.02-5.57.62-.61.19-1.18.5-1.7.92-.52.42-1.03,1.09-1.52,2.02-.49.93-.84,2.02-1.06,3.27-.22,1.25-.28,2.87-.18,4.86.09,1.99.41,4.2.97,6.64.8,3.85,1.23,7.73,1.29,11.65.06,3.91-.08,7.51-.41,10.78-.34,3.27-.51,4.97-.51,5.1,0,1.6,1.2,2.5,3.59,2.69,2.39.19,5.15-.35,8.28-1.64.98-.45,1.79-1.04,2.44-1.78.64-.74,1.12-1.46,1.43-2.17.31-.71.51-1.67.6-2.89.09-1.22.12-2.21.09-2.98-.03-.77-.09-1.86-.18-3.27-.09-1.41-.14-2.44-.14-3.08-.12-2.63-.68-3.98-1.66-4.04-.8-.06-1.29.67-1.47,2.21-.12.51-.15,1.06-.09,1.64.12,2.44-.55,4.65-2.03,6.64-1.41,1.92-2.73,2.09-3.96.48-1.04-1.35-1.61-3.13-1.7-5.34s.31-4.38,1.2-6.5c.89-2.12,2.16-3.62,3.82-4.52,1.78-1.03,3.99-1.78,6.63-2.26,2.64-.48,5.29-.69,7.96-.63,2.67.06,4.63.14,5.89.24,1.26.1,2.41.21,3.45.34h.09c.43-.58.58-1.27.46-2.07-.12-.8-.37-1.55-.74-2.26-.37-.71-.43-1.33-.18-1.88.25-.54.92-.85,2.03-.92,1.66-.19,3.14.24,4.46,1.3,1.32,1.06,2.18,2.41,2.58,4.04.4,1.64.32,3.42-.23,5.34-.37,1.28-1.23,2.26-2.58,2.94-1.35.67-2.72,1.06-4.1,1.16-1.38.1-2.84.14-4.37.14s-2.49.03-2.85.1c-.43,0-.52,1.41-.28,4.24.25,2.83.63,5.89,1.15,9.19.52,3.31.78,6.58.78,9.82s-.49,5.34-1.47,6.3c-1.41,1.22-5.48,2.07-12.2,2.55-6.72.48-13.32.5-19.79.05-6.48-.45-10.17-1.19-11.09-2.21-1.29-1.67-1.92-5.76-1.89-12.27.03-6.51.6-11.08,1.7-13.72.43-1.09,1.17-1.86,2.21-2.31,1.04-.45,2.04-.64,2.99-.58.95.06,1.81-.02,2.58-.24.77-.22,1.15-.69,1.15-1.4,0-.77-.48-1.27-1.43-1.49-.95-.22-2-.34-3.13-.34s-2.27-.35-3.41-1.06c-1.14-.71-1.86-1.83-2.16-3.37-.43-2.37-.72-5.49-.88-9.34-.15-3.85.01-7.62.51-11.31.49-3.69,1.32-5.98,2.49-6.88,1.35-.83,3.39-1.36,6.12-1.59,2.73-.22,6.24-.27,10.54-.14,4.29.13,7.06.16,8.29.1,2.64-.06,4.82-.08,6.54-.05,1.72.03,3.01.48,3.87,1.35.86.87,1.29,2.33,1.29,4.38,0,1.03.15,2.45.46,4.28.31,1.83.58,3.5.83,5,.25,1.51.37,2.98.37,4.43s-.34,2.54-1.01,3.27c-.68.74-1.72,1.01-3.13.82-1.96-.26-4.54-.19-7.73.19-3.19.39-5.65.55-7.36.48-1.72-.06-2.55-.67-2.49-1.83Z"/>
    </g>
  </g>
</svg>